<?xml version="1.0" encoding="UTF-8"?>
<!DOCTYPE svg PUBLIC "-//W3C//DTD SVG 1.1//EN" "http://www.w3.org/Graphics/SVG/1.1/DTD/svg11.dtd">
<svg xmlns="http://www.w3.org/2000/svg" version="1.1" width="512px" height="512px" style="shape-rendering:geometricPrecision; text-rendering:geometricPrecision; image-rendering:optimizeQuality; fill-rule:evenodd; clip-rule:evenodd" xmlns:xlink="http://www.w3.org/1999/xlink">
<g><path style="opacity:1" fill="#fed9a9" d="M 132.5,-0.5 C 198.5,-0.5 264.5,-0.5 330.5,-0.5C 333.254,0.641417 335.921,1.97475 338.5,3.5C 338.333,22.5029 338.5,41.5029 339,60.5C 339.996,66.1594 343.162,69.9927 348.5,72C 357.667,72.1667 366.833,72.3333 376,72.5C 385.525,72.4983 394.692,71.8317 403.5,70.5C 405.905,74.756 407.405,79.4227 408,84.5C 408.5,113.498 408.667,142.498 408.5,171.5C 371.498,171.333 334.498,171.5 297.5,172C 292.423,172.595 287.756,174.095 283.5,176.5C 265.449,184.901 254.282,198.901 250,218.5C 249.5,280.166 249.333,341.832 249.5,403.5C 240.5,403.5 231.5,403.5 222.5,403.5C 221.955,401.407 221.122,399.407 220,397.5C 216.49,393.541 212.657,390.208 208.5,387.5C 220.294,383.253 224.794,374.92 222,362.5C 219.288,355.229 214.121,350.896 206.5,349.5C 220.31,344.548 225.143,334.881 221,320.5C 217.957,315.123 213.457,311.623 207.5,310C 182.502,309.5 157.502,309.333 132.5,309.5C 132.5,206.5 132.5,103.5 132.5,0.5C 132.5,0.166667 132.5,-0.166667 132.5,-0.5 Z"/></g>
<g><path style="opacity:0.982" fill="#ffc477" d="M 132.5,0.5 C 132.5,103.5 132.5,206.5 132.5,309.5C 121.833,309.5 111.167,309.5 100.5,309.5C 100.333,217.499 100.5,125.499 101,33.5C 104.545,15.7899 115.045,4.78992 132.5,0.5 Z"/></g>
<g><path style="opacity:1" fill="#ffb656" d="M 338.5,3.5 C 341.09,4.12835 343.423,5.29501 345.5,7C 363.333,25.5 381.167,44 399,62.5C 400.777,65.0594 402.277,67.7261 403.5,70.5C 394.692,71.8317 385.525,72.4983 376,72.5C 366.833,72.3333 357.667,72.1667 348.5,72C 343.162,69.9927 339.996,66.1594 339,60.5C 338.5,41.5029 338.333,22.5029 338.5,3.5 Z"/></g>
<g><path style="opacity:1" fill="#539222" d="M 156.5,97.5 C 204.501,97.3333 252.501,97.5 300.5,98C 305.689,100.913 306.856,105.08 304,110.5C 302.581,111.46 301.081,112.293 299.5,113C 252.167,113.667 204.833,113.667 157.5,113C 151.273,108.239 150.94,103.073 156.5,97.5 Z"/></g>
<g><path style="opacity:1" fill="#549223" d="M 325.5,97.5 C 334.173,97.3336 342.84,97.5002 351.5,98C 358.311,103.33 357.977,108.33 350.5,113C 342.5,113.667 334.5,113.667 326.5,113C 320.273,108.239 319.94,103.073 325.5,97.5 Z"/></g>
<g><path style="opacity:1" fill="#4f901f" d="M 156.5,136.5 C 167.172,136.333 177.839,136.5 188.5,137C 193.986,142.081 193.653,146.748 187.5,151C 177.167,151.667 166.833,151.667 156.5,151C 151.235,146.076 151.235,141.242 156.5,136.5 Z"/></g>
<g><path style="opacity:1" fill="#4e901e" d="M 212.5,136.5 C 259.168,136.333 305.835,136.5 352.5,137C 358.062,142.163 357.729,146.829 351.5,151C 305.167,151.667 258.833,151.667 212.5,151C 207.235,146.076 207.235,141.242 212.5,136.5 Z"/></g>
<g><path style="opacity:1" fill="#519121" d="M 186.5,163.5 C 194.766,164.454 198.099,169.121 196.5,177.5C 203.759,177.194 209.926,179.527 215,184.5C 216.859,190.088 215.026,193.754 209.5,195.5C 201.409,190.858 192.742,189.358 183.5,191C 177.177,193.811 174.677,198.645 176,205.5C 176.69,208.196 178.19,210.363 180.5,212C 190.104,215.803 199.438,220.136 208.5,225C 220.13,237.922 221.63,252.089 213,267.5C 208.78,272.895 203.28,275.895 196.5,276.5C 196.891,280.383 196.224,284.05 194.5,287.5C 189.992,291.722 185.826,291.389 182,286.5C 181.502,283.518 181.335,280.518 181.5,277.5C 173.315,276.324 166.481,272.658 161,266.5C 159,262.833 159,259.167 161,255.5C 162.913,253.813 165.08,253.313 167.5,254C 171.217,257.385 175.217,260.385 179.5,263C 197.557,267.582 205.39,260.749 203,242.5C 201.551,239.384 199.384,236.884 196.5,235C 187.46,231.766 178.793,227.766 170.5,223C 162.461,215.544 159.628,206.377 162,195.5C 165.277,186.347 171.611,180.347 181,177.5C 181.333,174.167 181.667,170.833 182,167.5C 183.397,165.93 184.897,164.596 186.5,163.5 Z"/></g>
<g><path style="opacity:1" fill="#7ccb91" d="M 408.5,171.5 C 427.17,171.333 445.836,171.5 464.5,172C 490.689,178.685 506.356,195.185 511.5,221.5C 511.5,301.5 511.5,381.5 511.5,461.5C 510,471.322 506.333,480.322 500.5,488.5C 495.388,490.548 490.055,491.715 484.5,492C 429.167,492.667 373.833,492.667 318.5,492C 292.913,485.079 277.746,468.579 273,442.5C 272.333,362.833 272.333,283.167 273,203.5C 274.454,193.627 277.954,184.627 283.5,176.5C 287.756,174.095 292.423,172.595 297.5,172C 334.498,171.5 371.498,171.333 408.5,171.5 Z"/></g>
<g><path style="opacity:0.996" fill="#4cba68" d="M 283.5,176.5 C 277.954,184.627 274.454,193.627 273,203.5C 272.333,283.167 272.333,362.833 273,442.5C 277.746,468.579 292.913,485.079 318.5,492C 373.833,492.667 429.167,492.667 484.5,492C 490.055,491.715 495.388,490.548 500.5,488.5C 491.432,500.704 479.432,508.37 464.5,511.5C 408.167,511.5 351.833,511.5 295.5,511.5C 261.501,500.915 245.834,477.581 248.5,441.5C 249.495,429.011 249.829,416.344 249.5,403.5C 249.333,341.832 249.5,280.166 250,218.5C 254.282,198.901 265.449,184.901 283.5,176.5 Z"/></g>
<g><path style="opacity:1" fill="#1e81cd" d="M 302.5,205.5 C 312.172,205.334 321.839,205.5 331.5,206C 327.052,208.114 323.552,211.281 321,215.5C 319.888,222.591 319.388,229.758 319.5,237C 319.667,243.167 319.833,249.333 320,255.5C 321.763,262.262 325.93,266.762 332.5,269C 322.839,269.5 313.172,269.666 303.5,269.5C 297.086,268.259 292.586,264.592 290,258.5C 288.888,251.409 288.388,244.242 288.5,237C 288.388,229.758 288.888,222.591 290,215.5C 292.858,210.47 297.025,207.136 302.5,205.5 Z"/></g>
<g><path style="opacity:1" fill="#3d9ae0" d="M 302.5,205.5 C 353.998,204.335 405.665,204.168 457.5,205C 463.841,206.675 468.341,210.508 471,216.5C 473,230.167 473,243.833 471,257.5C 468.631,264.536 463.798,268.703 456.5,270C 405.332,270.832 354.332,270.665 303.5,269.5C 313.172,269.666 322.839,269.5 332.5,269C 325.93,266.762 321.763,262.262 320,255.5C 319.833,249.333 319.667,243.167 319.5,237C 319.388,229.758 319.888,222.591 321,215.5C 323.552,211.281 327.052,208.114 331.5,206C 321.839,205.5 312.172,205.334 302.5,205.5 Z"/></g>
<g><path style="opacity:1" fill="#328047" d="M 331.5,336.5 C 331.666,330.824 331.499,325.157 331,319.5C 329.891,321.815 328.057,323.315 325.5,324C 315.167,324.667 304.833,324.667 294.5,324C 291.558,322.564 289.558,320.397 288.5,317.5C 288.334,313.154 288.501,308.821 289,304.5C 290.251,301.619 292.417,299.786 295.5,299C 305.5,298.333 315.5,298.333 325.5,299C 329,299.833 331.167,302 332,305.5C 332.825,316.008 332.659,326.342 331.5,336.5 Z"/></g>
<g><path style="opacity:1" fill="#328047" d="M 401.5,336.5 C 401.666,330.824 401.499,325.157 401,319.5C 399.482,321.348 397.649,322.848 395.5,324C 385.167,324.667 374.833,324.667 364.5,324C 362.34,322.668 360.34,321.168 358.5,319.5C 355.227,301.94 362.394,294.94 380,298.5C 385.913,298.404 391.746,298.904 397.5,300C 399.378,301.543 400.878,303.376 402,305.5C 402.825,316.008 402.659,326.342 401.5,336.5 Z"/></g>
<g><path style="opacity:1" fill="#fc9813" d="M 472.5,318.5 C 471.023,320.807 469.023,322.64 466.5,324C 456.167,324.667 445.833,324.667 435.5,324C 433.34,322.668 431.34,321.168 429.5,319.5C 426.108,302.226 433.108,295.226 450.5,298.5C 467.899,294.575 475.232,301.242 472.5,318.5 Z"/></g>
<g><path style="opacity:0.996" fill="#ffa734" d="M 100.5,309.5 C 111.167,309.5 121.833,309.5 132.5,309.5C 157.502,309.333 182.502,309.5 207.5,310C 213.457,311.623 217.957,315.123 221,320.5C 225.143,334.881 220.31,344.548 206.5,349.5C 163.5,349.5 120.5,349.5 77.5,349.5C 62.9007,342.878 59.0674,332.211 66,317.5C 68.7076,313.896 72.2076,311.396 76.5,310C 84.4931,309.5 92.4931,309.334 100.5,309.5 Z"/></g>
<g><path style="opacity:1" fill="#2c733f" d="M 288.5,317.5 C 289.558,320.397 291.558,322.564 294.5,324C 304.833,324.667 315.167,324.667 325.5,324C 328.057,323.315 329.891,321.815 331,319.5C 331.499,325.157 331.666,330.824 331.5,336.5C 330.746,339.091 329.079,340.924 326.5,342C 315.5,342.667 304.5,342.667 293.5,342C 291.185,340.891 289.685,339.057 289,336.5C 288.5,330.175 288.334,323.842 288.5,317.5 Z"/></g>
<g><path style="opacity:1" fill="#2c733f" d="M 358.5,319.5 C 360.34,321.168 362.34,322.668 364.5,324C 374.833,324.667 385.167,324.667 395.5,324C 397.649,322.848 399.482,321.348 401,319.5C 401.499,325.157 401.666,330.824 401.5,336.5C 400.746,339.091 399.079,340.924 396.5,342C 385.5,342.667 374.5,342.667 363.5,342C 360.898,341.065 359.398,339.232 359,336.5C 358.501,330.843 358.334,325.176 358.5,319.5 Z"/></g>
<g><path style="opacity:1" fill="#ed8700" d="M 472.5,318.5 C 472.925,325.615 472.425,332.615 471,339.5C 470.097,340.701 468.931,341.535 467.5,342C 456.5,342.667 445.5,342.667 434.5,342C 433.069,341.535 431.903,340.701 431,339.5C 429.58,332.95 429.08,326.284 429.5,319.5C 431.34,321.168 433.34,322.668 435.5,324C 445.833,324.667 456.167,324.667 466.5,324C 469.023,322.64 471.023,320.807 472.5,318.5 Z"/></g>
<g><path style="opacity:0.997" fill="#ff9811" d="M 77.5,349.5 C 120.5,349.5 163.5,349.5 206.5,349.5C 214.121,350.896 219.288,355.229 222,362.5C 224.794,374.92 220.294,383.253 208.5,387.5C 179.198,388.476 149.865,388.809 120.5,388.5C 108.269,382.293 95.2695,379.627 81.5,380.5C 76.1667,380.5 70.8333,380.5 65.5,380.5C 60.5242,370.387 61.8575,361.22 69.5,353C 71.8668,351.155 74.5335,349.989 77.5,349.5 Z"/></g>
<g><path style="opacity:1" fill="#317f46" d="M 331.5,405.5 C 331.666,400.156 331.499,394.823 331,389.5C 329.833,390.667 328.667,391.833 327.5,393C 316.167,393.667 304.833,393.667 293.5,393C 291.598,391.27 289.931,389.437 288.5,387.5C 288.334,382.821 288.501,378.155 289,373.5C 290.167,371.667 291.667,370.167 293.5,369C 304.5,368.333 315.5,368.333 326.5,369C 329,370.167 330.833,372 332,374.5C 332.825,385.008 332.659,395.342 331.5,405.5 Z"/></g>
<g><path style="opacity:1" fill="#327f47" d="M 401.5,405.5 C 401.666,399.824 401.499,394.157 401,388.5C 400.167,390.667 398.667,392.167 396.5,393C 385.833,393.667 375.167,393.667 364.5,393C 363.5,392.667 362.5,392.333 361.5,392C 360.601,390.348 359.601,388.848 358.5,387.5C 358.334,382.821 358.501,378.155 359,373.5C 359.93,371.448 361.43,369.948 363.5,369C 374.5,368.333 385.5,368.333 396.5,369C 399,370.167 400.833,372 402,374.5C 402.825,385.008 402.659,395.342 401.5,405.5 Z"/></g>
<g><path style="opacity:1" fill="#fe9711" d="M 472.5,448.5 C 470.682,453.816 467.016,457.316 461.5,459C 453.833,459.667 446.167,459.667 438.5,459C 434.973,456.638 431.973,453.804 429.5,450.5C 429.333,425.831 429.5,401.164 430,376.5C 431.916,372.915 434.749,370.415 438.5,369C 446.833,368.333 455.167,368.333 463.5,369C 467.275,370.442 470.108,372.942 472,376.5C 472.5,400.498 472.667,424.498 472.5,448.5 Z"/></g>
<g><path style="opacity:0.965" fill="#cc7401" d="M 65.5,380.5 C 70.8333,380.5 76.1667,380.5 81.5,380.5C 62.3286,384.085 46.9953,393.752 35.5,409.5C 27.1667,409.5 18.8333,409.5 10.5,409.5C 23.5482,390.139 41.8815,380.473 65.5,380.5 Z"/></g>
<g><path style="opacity:1" fill="#fec375" d="M 81.5,380.5 C 95.2695,379.627 108.269,382.293 120.5,388.5C 136.017,397.699 146.351,411.033 151.5,428.5C 152.888,434.712 153.555,441.046 153.5,447.5C 148.167,447.5 142.833,447.5 137.5,447.5C 137.37,422.419 125.37,405.919 101.5,398C 99.5273,397.505 97.5273,397.338 95.5,397.5C 72.0882,395.36 55.2548,405.026 45,426.5C 42.0252,433.179 40.8585,440.179 41.5,447.5C 36.1667,447.5 30.8333,447.5 25.5,447.5C 25.5,444.167 25.5,440.833 25.5,437.5C 26.1667,433.5 26.8333,429.5 27.5,425.5C 30.1473,420.205 32.8139,414.872 35.5,409.5C 46.9953,393.752 62.3286,384.085 81.5,380.5 Z"/></g>
<g><path style="opacity:1" fill="#2d7440" d="M 288.5,387.5 C 289.931,389.437 291.598,391.27 293.5,393C 304.833,393.667 316.167,393.667 327.5,393C 328.667,391.833 329.833,390.667 331,389.5C 331.499,394.823 331.666,400.156 331.5,405.5C 331.089,409.079 329.089,411.246 325.5,412C 315.167,412.667 304.833,412.667 294.5,412C 291.572,410.74 289.739,408.573 289,405.5C 288.501,399.509 288.334,393.509 288.5,387.5 Z"/></g>
<g><path style="opacity:1" fill="#2d7440" d="M 358.5,387.5 C 359.601,388.848 360.601,390.348 361.5,392C 362.5,392.333 363.5,392.667 364.5,393C 375.167,393.667 385.833,393.667 396.5,393C 398.667,392.167 400.167,390.667 401,388.5C 401.499,394.157 401.666,399.824 401.5,405.5C 401.089,409.079 399.089,411.246 395.5,412C 385.167,412.667 374.833,412.667 364.5,412C 362,410.833 360.167,409 359,406.5C 358.5,400.175 358.334,393.842 358.5,387.5 Z"/></g>
<g><path style="opacity:1" fill="#ee8701" d="M 208.5,387.5 C 212.657,390.208 216.49,393.541 220,397.5C 221.122,399.407 221.955,401.407 222.5,403.5C 223.926,416.342 218.593,424.675 206.5,428.5C 188.167,428.5 169.833,428.5 151.5,428.5C 146.351,411.033 136.017,397.699 120.5,388.5C 149.865,388.809 179.198,388.476 208.5,387.5 Z"/></g>
<g><path style="opacity:1" fill="#cd7501" d="M 95.5,397.5 C 62.5906,409.989 51.7573,432.989 63,466.5C 70.5826,479.357 81.4159,488.024 95.5,492.5C 64.6943,492.683 46.6943,477.683 41.5,447.5C 40.8585,440.179 42.0252,433.179 45,426.5C 55.2548,405.026 72.0882,395.36 95.5,397.5 Z"/></g>
<g><path style="opacity:1" fill="#ed8600" d="M 95.5,397.5 C 97.5273,397.338 99.5273,397.505 101.5,398C 125.37,405.919 137.37,422.419 137.5,447.5C 134.159,472.553 120.159,487.553 95.5,492.5C 81.4159,488.024 70.5826,479.357 63,466.5C 51.7573,432.989 62.5906,409.989 95.5,397.5 Z"/></g>
<g><path style="opacity:1" fill="#ab6100" d="M 87.5,402.5 C 94.1698,401.681 98.1698,404.514 99.5,411C 103.625,411.704 107.125,413.537 110,416.5C 111.726,422.72 109.559,426.72 103.5,428.5C 98.7766,425.952 93.7766,425.118 88.5,426C 85.8765,428.559 86.2098,430.892 89.5,433C 110.602,438.369 116.769,450.869 108,470.5C 105.43,472.869 102.596,474.869 99.5,476.5C 98.0246,484.233 93.6912,486.733 86.5,484C 84.253,482.005 83.253,479.505 83.5,476.5C 76.0971,475.312 71.4305,471.146 69.5,464C 70.7039,457.894 74.3706,455.561 80.5,457C 84.6972,462.692 89.8639,463.859 96,460.5C 96.6667,458.167 96.6667,455.833 96,453.5C 89.851,450.336 83.6844,447.17 77.5,444C 74.5332,441.9 72.6998,439.066 72,435.5C 69.1958,424.446 72.8624,416.446 83,411.5C 83.3333,409.833 83.6667,408.167 84,406.5C 85.3756,405.295 86.5423,403.962 87.5,402.5 Z"/></g>
<g><path style="opacity:0.983" fill="#fec376" d="M 222.5,403.5 C 231.5,403.5 240.5,403.5 249.5,403.5C 249.829,416.344 249.495,429.011 248.5,441.5C 239.833,441.5 231.167,441.5 222.5,441.5C 219.56,434.227 214.227,429.894 206.5,428.5C 218.593,424.675 223.926,416.342 222.5,403.5 Z"/></g>
<g><path style="opacity:1" fill="#ab6200" d="M 10.5,409.5 C 18.8333,409.5 27.1667,409.5 35.5,409.5C 32.8139,414.872 30.1473,420.205 27.5,425.5C 19.1667,425.5 10.8333,425.5 2.5,425.5C 4.22779,419.619 6.89445,414.286 10.5,409.5 Z"/></g>
<g><path style="opacity:0.984" fill="#cb7300" d="M 2.5,425.5 C 10.8333,425.5 19.1667,425.5 27.5,425.5C 26.8333,429.5 26.1667,433.5 25.5,437.5C 17.1667,437.5 8.83333,437.5 0.5,437.5C 0.530407,433.382 1.19707,429.382 2.5,425.5 Z"/></g>
<g><path style="opacity:0.991" fill="#cc7400" d="M 151.5,428.5 C 169.833,428.5 188.167,428.5 206.5,428.5C 214.227,429.894 219.56,434.227 222.5,441.5C 225.078,453.678 220.744,462.344 209.5,467.5C 189.5,467.5 169.5,467.5 149.5,467.5C 152.235,461.156 153.569,454.49 153.5,447.5C 153.555,441.046 152.888,434.712 151.5,428.5 Z"/></g>
<g><path style="opacity:1" fill="#317f46" d="M 331.5,471.5 C 331.666,466.156 331.499,460.823 331,455.5C 329.833,456.667 328.667,457.833 327.5,459C 316.5,459.667 305.5,459.667 294.5,459C 293.234,458.691 292.067,458.191 291,457.5C 290.243,455.685 289.41,454.019 288.5,452.5C 288.334,448.154 288.501,443.821 289,439.5C 290.543,437.622 292.376,436.122 294.5,435C 305.167,434.333 315.833,434.333 326.5,435C 329,436.167 330.833,438 332,440.5C 332.825,451.008 332.659,461.342 331.5,471.5 Z"/></g>
<g><path style="opacity:1" fill="#328047" d="M 401.5,471.5 C 401.666,465.824 401.499,460.157 401,454.5C 400.065,457.102 398.232,458.602 395.5,459C 384.833,459.667 374.167,459.667 363.5,459C 361.313,457.975 359.646,456.475 358.5,454.5C 358.334,449.489 358.501,444.489 359,439.5C 360.167,437.667 361.667,436.167 363.5,435C 374.5,434.333 385.5,434.333 396.5,435C 399.428,436.26 401.261,438.427 402,441.5C 402.825,451.675 402.658,461.675 401.5,471.5 Z"/></g>
<g><path style="opacity:1" fill="#aa6100" d="M 0.5,437.5 C 8.83333,437.5 17.1667,437.5 25.5,437.5C 25.5,440.833 25.5,444.167 25.5,447.5C 25.5,449.167 25.5,450.833 25.5,452.5C 17.1667,452.5 8.83333,452.5 0.5,452.5C 0.166667,452.5 -0.166667,452.5 -0.5,452.5C -0.5,447.833 -0.5,443.167 -0.5,438.5C 0.166667,438.5 0.5,438.167 0.5,437.5 Z"/></g>
<g><path style="opacity:1" fill="#fea633" d="M 25.5,447.5 C 30.8333,447.5 36.1667,447.5 41.5,447.5C 46.6943,477.683 64.6943,492.683 95.5,492.5C 120.159,487.553 134.159,472.553 137.5,447.5C 142.833,447.5 148.167,447.5 153.5,447.5C 153.569,454.49 152.235,461.156 149.5,467.5C 141.551,487.785 127.218,501.118 106.5,507.5C 98.2588,509.12 89.9254,509.786 81.5,509.5C 62.8661,506.016 47.8661,496.683 36.5,481.5C 33.5478,476.592 30.8811,471.592 28.5,466.5C 27.2453,461.894 26.2453,457.227 25.5,452.5C 25.5,450.833 25.5,449.167 25.5,447.5 Z"/></g>
<g><path style="opacity:1" fill="#ed8701" d="M 472.5,448.5 C 472.666,454.842 472.5,461.175 472,467.5C 470.421,473.41 466.588,476.91 460.5,478C 436.653,483.643 426.32,474.476 429.5,450.5C 431.973,453.804 434.973,456.638 438.5,459C 446.167,459.667 453.833,459.667 461.5,459C 467.016,457.316 470.682,453.816 472.5,448.5 Z"/></g>
<g><path style="opacity:0.985" fill="#ca7200" d="M 0.5,452.5 C 8.83333,452.5 17.1667,452.5 25.5,452.5C 26.2453,457.227 27.2453,461.894 28.5,466.5C 20.0968,465.866 12.0968,466.533 4.5,468.5C 1.77147,463.624 0.438135,458.29 0.5,452.5 Z"/></g>
<g><path style="opacity:1" fill="#2c733f" d="M 358.5,454.5 C 359.646,456.475 361.313,457.975 363.5,459C 374.167,459.667 384.833,459.667 395.5,459C 398.232,458.602 400.065,457.102 401,454.5C 401.499,460.157 401.666,465.824 401.5,471.5C 401.089,475.079 399.089,477.246 395.5,478C 385.167,478.667 374.833,478.667 364.5,478C 362,476.833 360.167,475 359,472.5C 358.501,466.509 358.334,460.509 358.5,454.5 Z"/></g>
<g><path style="opacity:1" fill="#2c743f" d="M 288.5,452.5 C 289.41,454.019 290.243,455.685 291,457.5C 292.067,458.191 293.234,458.691 294.5,459C 305.5,459.667 316.5,459.667 327.5,459C 328.667,457.833 329.833,456.667 331,455.5C 331.499,460.823 331.666,466.156 331.5,471.5C 331.061,475.106 329.061,477.272 325.5,478C 315.167,478.667 304.833,478.667 294.5,478C 291.572,476.74 289.739,474.573 289,471.5C 288.5,465.175 288.334,458.842 288.5,452.5 Z"/></g>
<g><path style="opacity:1" fill="#ab6100" d="M 28.5,466.5 C 30.8811,471.592 33.5478,476.592 36.5,481.5C 28.1667,481.5 19.8333,481.5 11.5,481.5C 7.8793,477.929 5.54596,473.596 4.5,468.5C 12.0968,466.533 20.0968,465.866 28.5,466.5 Z"/></g>
<g><path style="opacity:0.971" fill="#aa6100" d="M 149.5,467.5 C 169.5,467.5 189.5,467.5 209.5,467.5C 223.077,474.397 226.577,484.73 220,498.5C 217.408,501.762 214.241,504.262 210.5,506C 175.882,507.473 141.215,507.973 106.5,507.5C 127.218,501.118 141.551,487.785 149.5,467.5 Z"/></g>
<g><path style="opacity:0.949" fill="#cc7300" d="M 11.5,481.5 C 19.8333,481.5 28.1667,481.5 36.5,481.5C 47.8661,496.683 62.8661,506.016 81.5,509.5C 56.6841,512.93 35.1841,506.264 17,489.5C 14.9205,486.935 13.0872,484.268 11.5,481.5 Z"/></g>
</svg>
